<?xml version="1.0" encoding="utf-8"?>
<svg viewBox="0 0 16 16" xmlns="http://www.w3.org/2000/svg">
  <path d="M 13.587 10.513 C 13.587 10.513 11.972 12.35 11.972 13.475 C 11.972 14.409 12.695 15.167 13.587 15.167 C 14.479 15.167 15.202 14.409 15.202 13.475 C 15.202 12.35 13.587 10.513 13.587 10.513 M 2.45 9.244 L 6.318 5.19 L 10.187 9.244 M 11.616 8.347 L 4.396 0.781 L 3.257 1.974 L 5.18 3.989 L 1.021 8.347 C 0.544 8.82 0.544 9.642 1.021 10.141 L 5.462 14.795 C 5.696 15.041 6.012 15.167 6.318 15.167 C 6.626 15.167 6.939 15.041 7.174 14.795 L 11.616 10.141 C 12.093 9.642 12.093 8.82 11.616 8.347 Z" style="" transform="matrix(1, 0, 0, 1, 3.552713678800501e-15, 8.881784197001252e-16)"/>
</svg>
